<svg width="45.679" height="18.084" viewBox="0 0 45.679 18.084" xmlns="http://www.w3.org/2000/svg"><g id="svgGroup" stroke-linecap="round" fill-rule="evenodd" font-size="9pt" stroke="#000" stroke-width="0.25mm" fill="black" style="stroke:#000;stroke-width:0.25mm;fill:black"><path d="M 22.046 8.978 L 22.046 8.88 L 23.071 1.263 Q 23.036 0.913 23.133 0.62 A 1.326 1.326 0 0 1 23.23 0.396 Q 23.428 0.034 23.951 0.018 A 1.599 1.599 0 0 1 23.999 0.018 A 2.465 2.465 0 0 1 24.195 0.002 Q 24.436 -0.008 24.642 0.036 A 1.274 1.274 0 0 1 25.012 0.176 A 2.156 2.156 0 0 1 25.684 0.774 Q 25.952 1.141 26.123 1.58 Q 26.294 2.02 26.489 2.386 Q 26.573 2.621 26.686 2.913 A 36.505 36.505 0 0 0 26.794 3.191 Q 26.968 3.632 27.209 4.293 A 77.432 77.432 0 0 1 27.234 4.363 A 88.538 88.538 0 0 1 27.44 4.939 Q 27.531 5.197 27.633 5.487 A 180.282 180.282 0 0 1 27.844 6.097 Q 28.088 6.802 28.383 7.714 A 146.717 146.717 0 0 1 28.662 8.587 L 28.76 8.685 A 2.932 2.932 0 0 1 28.86 8.63 Q 29.003 8.556 29.247 8.441 A 27.143 27.143 0 0 1 29.407 8.367 A 348.236 348.236 0 0 0 29.895 8.141 A 403.953 403.953 0 0 0 30.408 7.903 A 170.598 170.598 0 0 0 30.917 7.665 A 142.445 142.445 0 0 0 31.397 7.439 A 23.954 23.954 0 0 1 31.612 7.339 Q 31.878 7.216 32.023 7.159 A 2.401 2.401 0 0 1 32.056 7.147 A 0.098 0.098 0 0 1 32.079 7.117 Q 32.105 7.095 32.152 7.075 A 0.573 0.573 0 0 1 32.19 7.061 Q 32.277 7.032 32.325 7.011 A 0.505 0.505 0 0 0 32.349 7 L 32.397 7 A 0.514 0.514 0 0 1 32.551 7.022 A 0.389 0.389 0 0 1 32.764 7.183 Q 32.868 7.34 32.883 7.488 A 0.488 0.488 0 0 1 32.886 7.537 A 0.991 0.991 0 0 1 32.859 7.773 A 0.774 0.774 0 0 1 32.764 8.001 A 1.99 1.99 0 0 1 32.483 8.355 A 4.141 4.141 0 0 1 32.141 8.66 A 1.296 1.296 0 0 0 31.979 8.813 A 0.991 0.991 0 0 0 31.86 8.978 L 29.443 10.198 Q 29.346 10.32 29.346 10.394 A 0.57 0.57 0 0 0 29.36 10.513 Q 29.388 10.638 29.465 10.817 A 3.898 3.898 0 0 0 29.553 11.004 L 29.883 11.663 A 4.153 4.153 0 0 1 29.924 11.748 Q 29.98 11.868 30.069 12.069 A 36.554 36.554 0 0 1 30.127 12.2 Q 30.298 12.591 30.493 13.006 A 84.078 84.078 0 0 0 30.779 13.608 A 73.614 73.614 0 0 0 30.872 13.799 A 131.461 131.461 0 0 0 30.955 13.972 Q 31.073 14.214 31.128 14.324 L 31.128 14.397 A 1.265 1.265 0 0 1 31.084 14.745 Q 30.973 15.135 30.575 15.239 A 1.295 1.295 0 0 1 30.249 15.276 A 2.63 2.63 0 0 1 29.85 15.245 A 3.109 3.109 0 0 1 29.688 15.215 Q 29.395 15.154 29.248 14.861 L 27.612 11.37 L 27.393 11.37 A 31.953 31.953 0 0 1 25.692 12.58 A 35.54 35.54 0 0 1 25.415 12.762 Q 24.365 13.445 23.267 13.934 Q 23.096 14.813 23.059 15.716 A 19.112 19.112 0 0 0 23.043 16.49 A 19.123 19.123 0 0 0 23.071 17.522 A 2.317 2.317 0 0 1 22.925 17.705 Q 22.803 17.841 22.681 17.925 Q 22.485 18.06 22.144 18.06 A 1.178 1.178 0 0 1 21.956 18.046 Q 21.751 18.012 21.631 17.901 Q 21.46 17.742 21.387 17.51 A 1.595 1.595 0 0 1 21.318 17.134 A 1.88 1.88 0 0 1 21.313 17.01 L 21.313 16.522 A 21.598 21.598 0 0 1 21.509 13.616 Q 21.704 12.176 21.851 10.735 A 0.898 0.898 0 0 1 21.852 10.695 Q 21.856 10.606 21.875 10.408 A 7.587 7.587 0 0 1 21.875 10.406 A 17.012 17.012 0 0 1 21.902 10.14 A 20.883 20.883 0 0 1 21.936 9.856 A 34.94 34.94 0 0 1 21.973 9.573 A 28.703 28.703 0 0 1 22.009 9.307 Q 22.039 9.102 22.044 9.014 A 0.568 0.568 0 0 0 22.046 8.978 Z M 2.148 4.754 L 2.271 4.754 A 44.151 44.151 0 0 0 2.367 4.699 Q 2.55 4.593 2.905 4.388 A 66.481 66.481 0 0 1 3.384 4.113 A 78.938 78.938 0 0 1 3.894 3.826 A 81.841 81.841 0 0 1 4.407 3.542 A 69.822 69.822 0 0 1 4.895 3.277 Q 5.333 3.041 5.534 2.919 A 3.545 3.545 0 0 0 5.566 2.898 A 7.401 7.401 0 0 1 6.076 2.652 A 6.196 6.196 0 0 1 6.372 2.532 A 2.318 2.318 0 0 1 6.999 2.395 A 2.775 2.775 0 0 1 7.227 2.386 Q 7.471 2.386 7.593 2.459 A 0.187 0.187 0 0 1 7.661 2.535 Q 7.699 2.608 7.71 2.734 A 1.304 1.304 0 0 1 7.715 2.85 L 7.715 2.898 Q 7.627 3.339 7.419 3.631 A 1.363 1.363 0 0 1 7.373 3.692 A 2.519 2.519 0 0 1 6.799 4.217 A 4.688 4.688 0 0 1 6.116 4.595 Q 5.762 4.754 5.444 4.949 A 52.001 52.001 0 0 1 5.093 5.193 Q 4.62 5.518 4.262 5.747 A 17.884 17.884 0 0 1 4.211 5.779 Q 3.867 5.998 3.593 6.158 A 11.153 11.153 0 0 1 3.357 6.292 Q 3.04 6.467 2.841 6.593 A 4.754 4.754 0 0 0 2.795 6.622 A 1.818 1.818 0 0 0 2.633 6.739 Q 2.554 6.804 2.493 6.871 A 1.029 1.029 0 0 0 2.466 6.902 A 1.563 1.563 0 0 1 2.465 6.944 Q 2.463 7.005 2.458 7.113 A 16.756 16.756 0 0 1 2.454 7.183 A 24.066 24.066 0 0 0 2.449 7.255 Q 2.442 7.388 2.441 7.433 A 0.525 0.525 0 0 0 2.441 7.439 A 43.967 43.967 0 0 0 2.466 8.904 A 4.23 4.23 0 0 0 2.759 10.32 L 8.447 7.635 A 2.485 2.485 0 0 1 8.527 7.602 Q 8.64 7.559 8.704 7.549 A 0.9 0.9 0 0 1 8.758 7.543 Q 8.837 7.537 8.96 7.537 Q 9.058 7.537 9.277 7.61 Q 9.431 7.662 9.477 7.737 A 0.129 0.129 0 0 1 9.497 7.806 A 1.491 1.491 0 0 1 9.119 8.807 Q 8.74 9.246 8.203 9.612 Q 7.666 9.979 7.08 10.247 Q 6.494 10.516 6.055 10.735 A 0.814 0.814 0 0 1 5.916 10.789 A 0.998 0.998 0 0 1 5.835 10.809 A 0.287 0.287 0 0 0 5.757 10.835 A 0.213 0.213 0 0 0 5.664 10.931 L 3.101 12.273 A 0.692 0.692 0 0 0 3.052 12.305 Q 3.005 12.339 2.984 12.37 A 0.101 0.101 0 0 0 2.966 12.408 Q 2.954 12.469 2.954 12.591 Q 2.954 12.624 2.96 12.669 A 1.154 1.154 0 0 0 2.966 12.713 A 2.18 2.18 0 0 1 2.971 12.743 Q 2.979 12.792 2.979 12.811 L 3.491 16.814 Q 3.529 17.12 3.452 17.359 A 0.924 0.924 0 0 1 3.21 17.742 A 1.201 1.201 0 0 1 2.344 18.084 Q 2.277 18.084 2.188 18.067 A 1.601 1.601 0 0 1 2.1 18.047 A 2.061 2.061 0 0 1 1.807 17.95 A 0.786 0.786 0 0 1 1.55 17.779 Q 1.44 17.669 1.416 17.522 L 0.806 12.713 A 0.188 0.188 0 0 0 0.76 12.59 A 0.302 0.302 0 0 0 0.708 12.542 A 4.449 4.449 0 0 0 0.555 12.432 A 5.004 5.004 0 0 0 0.501 12.396 A 1.361 1.361 0 0 1 0.293 12.225 Q 0.195 12.127 0.195 11.981 A 1.309 1.309 0 0 1 0.204 11.826 Q 0.213 11.748 0.233 11.681 A 0.655 0.655 0 0 1 0.256 11.614 Q 0.317 11.468 0.403 11.334 A 2.232 2.232 0 0 0 0.526 11.115 A 1.996 1.996 0 0 0 0.549 11.065 A 0.636 0.636 0 0 0 0.593 10.926 Q 0.61 10.839 0.61 10.735 A 10.799 10.799 0 0 0 0.513 9.283 A 103.937 103.937 0 0 0 0.305 7.83 A 103.937 103.937 0 0 1 0.098 6.377 A 10.799 10.799 0 0 1 0 4.925 A 2.261 2.261 0 0 1 0.011 4.688 Q 0.046 4.363 0.183 4.217 Q 0.338 4.052 0.746 4.026 A 2.527 2.527 0 0 1 0.903 4.022 A 1.373 1.373 0 0 1 1.23 4.058 A 1.023 1.023 0 0 1 1.599 4.229 Q 1.88 4.437 2.148 4.754 Z M 38.452 7.537 L 38.452 7.342 Q 38.43 7.167 38.399 6.904 A 181.074 181.074 0 0 1 38.391 6.841 A 59.35 59.35 0 0 0 38.336 6.397 A 52.417 52.417 0 0 0 38.318 6.255 Q 38.293 6.062 38.273 5.91 A 62.393 62.393 0 0 1 38.257 5.779 L 38.232 5.584 L 38.037 5.584 L 35.254 6.414 A 0.399 0.399 0 0 1 34.983 6.597 A 0.655 0.655 0 0 1 34.851 6.609 L 34.424 6.609 Q 34.135 6.609 33.837 6.391 A 1.767 1.767 0 0 1 33.728 6.304 Q 33.445 6.06 33.388 5.777 A 0.733 0.733 0 0 1 33.374 5.633 Q 33.374 5.364 33.557 5.108 A 1.034 1.034 0 0 1 33.775 4.881 A 0.892 0.892 0 0 1 34.009 4.754 L 37.939 3.509 A 1.424 1.424 0 0 1 38.051 3.229 Q 38.115 3.105 38.206 2.979 A 2.394 2.394 0 0 1 38.22 2.96 A 0.712 0.712 0 0 1 38.419 2.773 Q 38.567 2.682 38.757 2.679 A 0.824 0.824 0 0 1 38.77 2.679 A 1.132 1.132 0 0 1 39.038 2.709 A 0.846 0.846 0 0 1 39.343 2.85 A 1.859 1.859 0 0 0 39.809 3.098 A 2.112 2.112 0 0 0 39.868 3.118 A 2.415 2.415 0 0 0 39.996 3.1 Q 40.214 3.064 40.592 2.974 A 21.898 21.898 0 0 0 40.601 2.972 A 268.043 268.043 0 0 1 41.129 2.847 A 316.846 316.846 0 0 1 41.687 2.715 A 316.846 316.846 0 0 0 42.246 2.584 A 268.043 268.043 0 0 0 42.773 2.459 A 194.14 194.14 0 0 0 43.003 2.404 Q 43.256 2.344 43.402 2.308 A 20.388 20.388 0 0 0 43.481 2.288 A 2.979 2.979 0 0 0 43.635 2.259 Q 43.816 2.219 43.921 2.166 Q 44.043 2.105 44.285 2.095 A 2.401 2.401 0 0 1 44.385 2.093 A 1.562 1.562 0 0 1 44.886 2.179 A 2.133 2.133 0 0 1 45.239 2.337 A 0.926 0.926 0 0 1 45.494 2.539 Q 45.679 2.753 45.679 3.069 A 0.772 0.772 0 0 1 45.459 3.619 Q 45.239 3.851 44.922 3.924 L 40.283 5.096 L 40.283 5.315 Q 40.283 6.072 40.417 6.805 A 5.946 5.946 0 0 1 40.516 7.879 A 5.871 5.871 0 0 1 40.503 8.27 L 41.333 15.814 L 41.333 16.351 Q 41.333 16.644 41.321 16.949 A 2.129 2.129 0 0 1 41.287 17.256 A 1.656 1.656 0 0 1 41.223 17.498 A 0.885 0.885 0 0 1 40.942 17.901 A 0.617 0.617 0 0 1 40.751 18.004 Q 40.662 18.034 40.553 18.048 A 1.568 1.568 0 0 1 40.356 18.06 A 0.814 0.814 0 0 1 40.074 18.006 Q 39.963 17.965 39.848 17.893 A 1.726 1.726 0 0 1 39.734 17.815 A 1.037 1.037 0 0 1 39.543 17.636 A 0.715 0.715 0 0 1 39.38 17.23 L 38.452 7.537 Z M 12.744 6.805 L 12.744 7.61 A 100.829 100.829 0 0 1 12.695 10.76 A 101.623 101.623 0 0 0 12.647 13.934 L 12.647 14.959 A 1.112 1.112 0 0 0 12.65 15.044 Q 12.657 15.132 12.676 15.249 A 3.928 3.928 0 0 0 12.683 15.289 A 2.904 2.904 0 0 0 12.694 15.348 Q 12.724 15.496 12.744 15.496 L 12.939 15.496 L 18.726 13.201 A 1.227 1.227 0 0 1 18.829 13.12 Q 18.941 13.041 19.034 13.023 A 0.302 0.302 0 0 1 19.067 13.018 A 3.18 3.18 0 0 1 19.184 13.011 Q 19.255 13.007 19.335 13.006 A 5.804 5.804 0 0 1 19.409 13.006 A 3.031 3.031 0 0 1 19.475 13.007 Q 19.58 13.009 19.727 13.018 Q 19.922 13.03 20.105 13.091 Q 20.288 13.152 20.422 13.262 Q 20.554 13.37 20.557 13.582 A 0.708 0.708 0 0 1 20.557 13.592 Q 20.557 14.153 19.946 14.568 A 20.95 20.95 0 0 1 18.335 15.337 A 11.748 11.748 0 0 1 16.65 15.911 L 16.528 16.009 A 8.536 8.536 0 0 0 14.343 16.937 Q 13.33 17.547 12.231 18.06 L 12.012 18.06 A 1.56 1.56 0 0 1 11.625 18.015 A 1.012 1.012 0 0 1 11.035 17.62 A 2.307 2.307 0 0 1 10.678 16.854 A 2.833 2.833 0 0 1 10.62 16.583 A 6.125 6.125 0 0 1 10.542 15.594 A 6.811 6.811 0 0 1 10.547 15.337 Q 10.569 14.759 10.571 14.366 A 15.391 15.391 0 0 0 10.571 14.275 Q 10.571 12.396 10.632 10.54 A 114.364 114.364 0 0 0 10.693 6.78 A 22.069 22.069 0 0 0 10.584 4.583 A 22.069 22.069 0 0 1 10.474 2.386 A 0.938 0.938 0 0 1 10.531 2.052 A 0.852 0.852 0 0 1 10.681 1.8 A 0.675 0.675 0 0 1 11.175 1.557 A 0.913 0.913 0 0 1 11.23 1.556 A 2.246 2.246 0 0 1 11.553 1.577 Q 11.903 1.628 12.109 1.8 A 1.324 1.324 0 0 1 12.524 2.41 A 2.322 2.322 0 0 1 12.623 2.853 A 3.079 3.079 0 0 1 12.647 3.24 L 12.647 4.144 A 3.246 3.246 0 0 0 12.647 4.191 Q 12.649 4.305 12.657 4.583 A 93.307 93.307 0 0 0 12.659 4.632 A 33.295 33.295 0 0 0 12.674 5.038 A 41.453 41.453 0 0 0 12.695 5.474 A 41.453 41.453 0 0 1 12.717 5.911 A 33.295 33.295 0 0 1 12.732 6.316 A 80.323 80.323 0 0 1 12.736 6.453 Q 12.744 6.725 12.744 6.805 Z M 23.486 11.15 L 23.486 11.785 A 6.921 6.921 0 0 0 24.718 11.137 A 7.829 7.829 0 0 0 24.915 11.004 A 53.462 53.462 0 0 1 25.595 10.534 A 45.059 45.059 0 0 1 26.245 10.101 A 0.937 0.937 0 0 1 26.311 10.061 Q 26.347 10.041 26.389 10.021 A 1.797 1.797 0 0 1 26.428 10.003 A 1.068 1.068 0 0 0 26.636 9.881 Q 26.703 9.831 26.793 9.769 A 7.894 7.894 0 0 1 26.88 9.71 L 26.88 9.515 L 24.634 3.118 L 24.536 3.021 Q 24.477 3.138 24.395 3.603 A 15.393 15.393 0 0 0 24.353 3.851 A 29.675 29.675 0 0 0 24.297 4.218 Q 24.21 4.806 24.109 5.621 A 179.03 179.03 0 0 0 23.987 6.634 Q 23.926 7.154 23.86 7.731 A 310.544 310.544 0 0 0 23.816 8.123 A 466.885 466.885 0 0 0 23.654 9.588 A 566.009 566.009 0 0 0 23.486 11.15 Z" vector-effect="non-scaling-stroke"/></g></svg>